  <svg xmlns="http://www.w3.org/2000/svg" width="40" height="40" viewBox="0 0 40 40" fill="none">
  <g clip-path="url(#clip0_15096_7656)">
    <path d="M27.7482 32.0065C27.7152 32.009 27.6819 32.0102 27.6483 32.0102H8.40704C7.6671 32.0102 7.06726 31.4104 7.06726 30.6704C7.06726 29.9305 7.6671 29.3306 8.40704 29.3306H26.7938L30.1079 20.5218C30.3685 19.8293 31.1411 19.4791 31.8337 19.7396C32.5262 20.0002 32.8764 20.7728 32.6158 21.4654L28.9765 31.1384C28.7777 31.667 28.2804 31.9962 27.7482 32.0065Z" fill="url(#paint0_linear_15096_7656)"/>
    <path fill-rule="evenodd" clip-rule="evenodd" d="M8.85913 10.7698C8.85913 10.1386 9.3708 9.62691 10.002 9.62691H26.3639C26.9951 9.62691 27.5068 10.1386 27.5068 10.7698V21.6243C27.5068 22.2554 26.9951 22.7671 26.3639 22.7671H19.6482C19.6674 22.857 19.6776 22.9502 19.6776 23.0458V24.3246H21.2003C21.93 24.3246 22.5215 24.9161 22.5215 25.6458C22.5215 26.3755 21.93 26.967 21.2003 26.967H15.1656C14.4359 26.967 13.8444 26.3755 13.8444 25.6458C13.8444 24.9161 14.4359 24.3246 15.1656 24.3246H17.0351V23.0458C17.0351 22.9502 17.0453 22.857 17.0646 22.7671H10.002C9.3708 22.7671 8.85913 22.2554 8.85913 21.6243V10.7698ZM17.5591 21.6427L20.3673 10.7515H18.8058L15.9976 21.6427H17.5591ZM9.73987 15.8551V17.4186L15.7307 20.1724V18.3735L11.6843 16.6778V16.5959L15.7307 14.9001V13.1012L9.73987 15.8551ZM26.626 17.4186L20.6352 20.1724V18.3735L24.6816 16.6778V16.5959L20.6352 14.9001V13.1012L26.626 15.8551V17.4186Z" fill="url(#paint1_linear_15096_7656)"/>
    <path fill-rule="evenodd" clip-rule="evenodd" d="M19.7006 0H20.3992C25.4444 0.0626728 30.4269 2.13456 34.0195 5.67742C37.7356 9.2553 39.9476 14.3244 40.0637 19.482V20.494C39.955 25.5724 37.8167 30.5714 34.202 34.1419C30.7605 37.635 25.9918 39.7124 21.1089 40H0.0637207V18.9806C0.340218 14.0885 2.42501 9.30876 5.92179 5.86175C9.52363 2.21567 14.5762 0.0700461 19.7006 0ZM15.9955 3.08571C14.0158 3.59816 12.1338 4.46452 10.414 5.56682C5.83515 8.64332 2.75681 13.9926 2.74022 19.5465C2.73275 22.2125 2.73537 24.8789 2.73798 27.5452C2.74117 30.8042 2.74437 34.0632 2.72916 37.3217C5.79105 37.3256 8.85295 37.3259 11.9148 37.3261C14.5396 37.3263 17.1643 37.3265 19.7891 37.329C21.2822 37.3382 22.7845 37.2184 24.2407 36.8793C26.2941 36.3244 28.2481 35.4138 30.014 34.2286C31.6176 33.0802 33.0352 31.67 34.2038 30.0811C35.4591 28.2544 36.414 26.2157 36.978 24.0719C37.5402 21.423 37.5439 18.6544 36.9983 16.0037C36.4434 13.8304 35.4776 11.7622 34.2093 9.91521C33.0481 8.3318 31.6361 6.92535 30.0416 5.78065C28.2186 4.54931 26.1909 3.60922 24.0582 3.06544C21.4093 2.52166 18.6425 2.52166 15.9955 3.08571Z" fill="url(#paint2_linear_15096_7656)"/>
  </g>
  <defs>
    <linearGradient id="paint0_linear_15096_7656" x1="34.5637" y1="5.5" x2="0.0637197" y2="40" gradientUnits="userSpaceOnUse">
      <stop stop-color="#4AFFD8"/>
      <stop offset="0.286458" stop-color="#00CAFF"/>
      <stop offset="0.677083" stop-color="#2D93FF"/>
      <stop offset="1" stop-color="#007CFF"/>
    </linearGradient>
    <linearGradient id="paint1_linear_15096_7656" x1="34.5637" y1="5.5" x2="0.0637197" y2="40" gradientUnits="userSpaceOnUse">
      <stop stop-color="#4AFFD8"/>
      <stop offset="0.286458" stop-color="#00CAFF"/>
      <stop offset="0.677083" stop-color="#2D93FF"/>
      <stop offset="1" stop-color="#007CFF"/>
    </linearGradient>
    <linearGradient id="paint2_linear_15096_7656" x1="34.5637" y1="5.5" x2="0.0637197" y2="40" gradientUnits="userSpaceOnUse">
      <stop stop-color="#4AFFD8"/>
      <stop offset="0.286458" stop-color="#00CAFF"/>
      <stop offset="0.677083" stop-color="#2D93FF"/>
      <stop offset="1" stop-color="#007CFF"/>
    </linearGradient>
    <clipPath id="clip0_15096_7656">
      <rect width="40" height="40" fill="white"/>
    </clipPath>
  </defs>
</svg> 